# xmcd
#
# Track frame offsets:
#	150
#	32256
#	81306
#	104703
#	130738
#	166778
#
# Disc length: 2771 seconds
#
# Revision: 0
# Processed by: cddbd v1.5.2PL0 Copyright (c) Steve Scherf et al.
# Submitted via: EasyCDDAExtractor 10.0.6.1
#
DISCID=410ad106
DTITLE=Canned Heat - Live At The Topanga Corral
DYEAR=1900
DGENRE=
TTITLE0=Bullfrog Blues 
TTITLE1=Sweet Sixteen 
TTITLE2=I'd Rather Be the Devil 
TTITLE3=Dust My Broom 
TTITLE4=I Wish You Would 
TTITLE5=It Hurts Me Too 
EXTD=
EXTT0=
EXTT1=
EXTT2=
EXTT3=
EXTT4=
EXTT5=
PLAYORDER=
